<svg width="24" height="24" viewBox="0 0 24 24" fill="none" xmlns="http://www.w3.org/2000/svg">
<path d="M16.9999 14.8301C16.8126 15.0163 16.5591 15.1208 16.2949 15.1208C16.0308 15.1208 15.7773 15.0163 15.5899 14.8301L11.9999 11.2901L8.45995 14.8301C8.27259 15.0163 8.01913 15.1208 7.75495 15.1208C7.49076 15.1208 7.23731 15.0163 7.04995 14.8301C6.95622 14.7371 6.88183 14.6265 6.83106 14.5046C6.78029 14.3828 6.75415 14.2521 6.75415 14.1201C6.75415 13.988 6.78029 13.8573 6.83106 13.7355C6.88183 13.6136 6.95622 13.503 7.04995 13.4101L11.2899 9.17006C11.3829 9.07633 11.4935 9.00194 11.6154 8.95117C11.7372 8.9004 11.8679 8.87426 11.9999 8.87426C12.132 8.87426 12.2627 8.9004 12.3845 8.95117C12.5064 9.00194 12.617 9.07633 12.7099 9.17006L16.9999 13.4101C17.0937 13.503 17.1681 13.6136 17.2188 13.7355C17.2696 13.8573 17.2957 13.988 17.2957 14.1201C17.2957 14.2521 17.2696 14.3828 17.2188 14.5046C17.1681 14.6265 17.0937 14.7371 16.9999 14.8301Z" fill="#272727"/>
</svg>
